<?xml version="1.0" encoding="UTF-8"?>
<svg width="17px" height="17px" viewBox="0 0 17 17" version="1.1" xmlns="http://www.w3.org/2000/svg" xmlns:xlink="http://www.w3.org/1999/xlink">
    <!-- Generator: Sketch 52.5 (67469) - http://www.bohemiancoding.com/sketch -->
    <title>email</title>
    <desc>Created with Sketch.</desc>
    <g id="Page-1" stroke="none" stroke-width="1" fill="none" fill-rule="evenodd">
        <g id="Home-2" transform="translate(-835.000000, -2674.000000)" fill="#000000" fill-rule="nonzero">
            <g id="Contact" transform="translate(835.000000, 2648.000000)">
                <g id="email" transform="translate(0.000000, 26.000000)">
                    <path d="M8.49985833,0 C3.80557009,0 0,3.80565806 0,8.499915 C0,13.1940586 3.80557009,17 8.49985833,17 C13.1941466,17 17,13.1940586 17,8.499915 C17,3.80565806 13.1941466,0 8.49985833,0 Z M8.50002833,2.98556986 L13.5300155,6.12210122 L3.47004117,6.12210122 L8.50002833,2.98556986 Z M13.5926899,11.130748 L13.5921799,11.130748 C13.5921799,11.6338397 13.1844564,12.0415037 12.681418,12.0415037 L4.31863864,12.0415037 C3.81554359,12.0415037 3.4078768,11.633783 3.4078768,11.130748 L3.4078768,6.32168322 C3.4078768,6.26847268 3.41331689,6.2167355 3.42215704,6.16590499 L8.2280238,9.16263829 C8.23391723,9.16632166 8.24020734,9.16881502 8.24627077,9.17221506 C8.25261754,9.17572842 8.25907765,9.17912846 8.26553776,9.18235849 C8.29948166,9.19986867 8.33444557,9.21397881 8.37020284,9.22321557 C8.37388623,9.22423558 8.37756963,9.22468891 8.38125302,9.22553892 C8.42046701,9.23477568 8.460191,9.24055574 8.49985833,9.24055574 L8.50014167,9.24055574 C8.50042501,9.24055574 8.50070835,9.24055574 8.50070835,9.24055574 C8.54037567,9.24055574 8.58009967,9.23494568 8.61931366,9.22553892 C8.62299705,9.22463225 8.62668044,9.22423558 8.63036384,9.22321557 C8.66606443,9.21397881 8.70091502,9.19986867 8.73502892,9.18235849 C8.74148902,9.17912846 8.74794913,9.17572842 8.7542959,9.17221506 C8.76030267,9.16881502 8.76664944,9.16632166 8.77254288,9.16263829 L13.5784096,6.16590499 C13.5872498,6.2167355 13.5926899,6.26835935 13.5926899,6.32168322 L13.5926899,11.130748 Z" id="Shape"></path>
                </g>
            </g>
        </g>
    </g>
</svg>