<?xml version="1.0" encoding="UTF-8"?>
<svg width="17px" height="17px" viewBox="0 0 17 17" version="1.1" xmlns="http://www.w3.org/2000/svg" xmlns:xlink="http://www.w3.org/1999/xlink">
    <!-- Generator: Sketch 52.5 (67469) - http://www.bohemiancoding.com/sketch -->
    <title>phone-symbol-of-an-auricular-inside-a-circle</title>
    <desc>Created with Sketch.</desc>
    <g id="Page-1" stroke="none" stroke-width="1" fill="none" fill-rule="evenodd">
        <g id="Home-2" transform="translate(-240.000000, -28.000000)" fill="#FFFFFF" fill-rule="nonzero">
            <g id="Sticky" transform="translate(240.000000, 27.000000)">
                <g id="Group">
                    <g id="phone-symbol-of-an-auricular-inside-a-circle" transform="translate(0.000000, 1.000000)">
                        <path d="M8.50003504,0 C3.80593145,0 0,3.80591576 0,8.5 C0,13.1940142 3.80593145,17 8.50003504,17 C13.1941386,17 17,13.1939791 17,8.5 C17.000035,3.80591576 13.1941386,0 8.50003504,0 Z M12.9886152,12.4024406 L12.3080336,13.0831595 C12.1865275,13.20449 11.8307331,13.2802033 11.8193112,13.2802033 C9.66625585,13.2989827 7.59318852,12.4532782 6.07001711,10.9299729 C4.54267637,9.40176253 3.6959873,7.3213111 3.71872591,5.16101209 C3.71872591,5.16003108 3.79664681,4.81443369 3.91804786,4.69418934 L4.59859442,4.01354047 C4.84763298,3.76334674 5.32601966,3.65028482 5.6611426,3.76240077 L5.80430123,3.81015515 C6.13844315,3.92216598 6.48926238,4.29162304 6.58158323,4.63200003 L6.92392366,5.88846937 C7.01624451,6.22982737 6.89172523,6.71546458 6.64275674,6.96450211 L6.18833495,7.41899211 C6.63448816,9.07067014 7.93044867,10.3668706 9.5824138,10.8141081 L10.0366604,10.359513 C10.2868552,10.1093192 10.7723192,9.98490557 11.1129428,10.0770859 L12.3692422,10.4206512 C12.7096906,10.5141979 13.0790792,10.8628084 13.1910554,11.1968439 L13.23881,11.342069 C13.3498052,11.6762446 13.2376188,12.1545242 12.9886152,12.4024406 Z" id="Shape"></path>
                    </g>
                </g>
            </g>
        </g>
    </g>
</svg>